<?xml version="1.0" encoding="UTF-8" standalone="no"?>
<!-- Created with Inkscape (http://www.inkscape.org/) -->

<svg
   width="174.27734mm"
   height="134.58469mm"
   viewBox="0 0 174.27734 134.58469"
   version="1.1"
   id="svg35693"
   inkscape:version="1.1.1 (3bf5ae0d25, 2021-09-20)"
   sodipodi:docname="verger.svg"
   xmlns:inkscape="http://www.inkscape.org/namespaces/inkscape"
   xmlns:sodipodi="http://sodipodi.sourceforge.net/DTD/sodipodi-0.dtd"
   xmlns="http://www.w3.org/2000/svg"
   xmlns:svg="http://www.w3.org/2000/svg">
  <sodipodi:namedview
     id="namedview35695"
     pagecolor="#505050"
     bordercolor="#eeeeee"
     borderopacity="1"
     inkscape:pageshadow="0"
     inkscape:pageopacity="0"
     inkscape:pagecheckerboard="0"
     inkscape:document-units="mm"
     showgrid="false"
     fit-margin-top="0"
     fit-margin-left="0"
     fit-margin-right="0"
     fit-margin-bottom="0"
     inkscape:zoom="0.96882954"
     inkscape:cx="223.98161"
     inkscape:cy="404.09585"
     inkscape:window-width="1920"
     inkscape:window-height="1043"
     inkscape:window-x="0"
     inkscape:window-y="0"
     inkscape:window-maximized="1"
     inkscape:current-layer="layer1" />
  <defs
     id="defs35690" />
  <g
     inkscape:label="Calque 1"
     inkscape:groupmode="layer"
     id="layer1"
     transform="translate(-7.5083554,-22.249397)">
    <path
       style="fill:#16771f;fill-opacity:1;stroke:#16771f;stroke-width:2.98609;stroke-linecap:round;stroke-linejoin:round;stroke-miterlimit:4;stroke-dasharray:none;stroke-opacity:1"
       d="m 95.404057,104.42757 c -3.424497,-0.43681 -6.451317,-2.71279 -6.734625,-5.064184 -0.157088,-1.308563 -0.936461,-2.216351 -1.901031,-2.216351 -0.381968,0 -1.431697,0.370996 -2.332604,0.824431 C 76.693057,101.86809 68.698151,100.1205 63.584551,93.413772 59.391429,87.913881 57.969654,80.399768 60.06332,74.803555 60.820645,72.779252 60.638755,72.145961 58.927334,70.849249 55.81508,68.491433 54.092357,66.175 53.047039,62.941644 52.53003,61.342338 52.409597,60.494833 52.403535,58.416115 c 0,-3.204614 0.468781,-5.255892 1.92528,-8.257336 0.928468,-1.913527 1.457053,-2.635297 3.219183,-4.396549 3.170954,-3.168986 6.184823,-4.577165 10.26881,-4.797989 3.36387,-0.18189 3.398319,-0.203745 4.645644,-2.954374 2.661938,-5.869591 7.064235,-9.098875 14.96351,-10.976779 2.529102,-0.60125 3.027923,-0.636707 8.890855,-0.631778 6.086983,0.0052 6.255653,0.01873 8.403883,0.679003 7.85215,2.413198 13.76331,6.31562 15.833,10.452185 0.46906,0.937977 0.85296,1.94837 0.85296,2.245315 0,1.590079 1.09161,2.804914 2.52,2.804914 0.93922,0 3.79683,0.948917 5.39002,1.789829 4.1256,2.17777 6.46179,6.700443 6.46179,12.509455 0,4.348774 -1.25476,8.74591 -3.26879,11.454659 -1.52209,2.046674 -3.28973,3.787264 -4.40422,4.336508 -1.38072,0.680426 -4.89148,0.618691 -7.55121,-0.132779 -3.19851,-0.903613 -3.58544,-0.901401 -4.36509,0.02508 -0.50543,0.60099 -0.63083,0.948486 -0.5126,1.422421 0.0854,0.344926 0.21772,1.589735 0.29406,2.766237 0.1626,2.51338 -0.24804,3.931473 -1.42068,4.918109 -0.8513,0.716304 -2.18571,0.803204 -3.7395,0.243483 -1.39118,-0.501232 -1.77398,-0.448683 -2.57622,0.353677 -1.31788,1.317659 -0.78792,2.60501 1.4102,3.427515 1.58299,0.592222 3.86847,0.683818 5.42529,0.217443 1.23795,-0.370909 2.97198,-1.861114 3.79021,-3.257249 0.6435,-1.098417 1.3176,-3.778676 1.32477,-5.269063 v -0.880856 l 1.52236,0.356989 c 1.01941,0.238993 2.32765,0.322183 3.95832,0.251669 2.60489,-0.112607 4.0556,-0.57345 5.66203,-1.798844 1.41047,-1.07578 1.62185,-0.741762 1.4474,2.288506 -0.37094,6.448025 -3.06375,12.664339 -7.5964,17.535797 -5.89214,6.332267 -13.04291,8.925657 -19.70892,7.147917 -1.05992,-0.28261 -2.11819,-0.51383 -2.35217,-0.51383 -0.23425,0 -0.89237,0.39034 -1.46339,0.86743 -0.57103,0.47708 -1.33662,1.02176 -1.701501,1.21038 -0.958509,0.49576 -3.075601,0.7629 -4.552495,0.5745 z M 87.193364,72.190062 c 0.631931,-0.632079 0.79012,-1.754193 0.360474,-2.557225 -0.132284,-0.246488 -1.258351,-0.839226 -2.535166,-1.333944 -5.591199,-2.166348 -6.911282,-4.708679 -5.261867,-10.133296 0.264568,-0.867026 0.480357,-1.865712 0.481182,-2.219298 0.0024,-0.855835 -0.68126,-1.63711 -1.585201,-1.811319 -1.196617,-0.230587 -1.943745,0.565359 -2.715953,2.892925 -0.569923,1.717987 -0.66693,2.4291 -0.694214,5.086712 -0.03307,3.386384 -0.140552,3.682754 -1.510792,4.255929 -1.009491,0.421928 -3.032331,0.420105 -4.034932,-0.0036 -1.683314,-0.711359 -2.696938,-2.201587 -3.227176,-4.744228 -0.225986,-1.077124 -0.514805,-1.766649 -0.862603,-2.049515 -1.288939,-1.049017 -3.151939,-0.04611 -3.146425,1.694063 0,3.255085 2.29733,7.051972 5.101471,8.468487 3.089103,1.560539 6.410531,1.30284 9.529675,-0.739386 0.613741,-0.401825 0.653428,-0.391062 1.807604,0.489892 1.936856,1.47854 5.765647,3.240294 7.136715,3.283937 0.30756,0.0099 0.828426,-0.251256 1.157208,-0.580107 z"
       id="path20502" />
    <path
       style="fill:#16771f;fill-opacity:1;stroke:#16771f;stroke-width:2.98609;stroke-linecap:round;stroke-linejoin:round;stroke-miterlimit:4;stroke-dasharray:none;stroke-opacity:1"
       d="m 134.85827,115.80099 c -1.39697,-0.4522 -2.5393,-1.36049 -3.71883,-2.95733 -1.20846,-1.63563 -1.4689,-1.65828 -5.1993,-0.45229 -7.13699,2.30726 -11.97087,1.48994 -15.94765,-2.69638 -2.3734,-2.49851 -2.33702,-2.69043 0.54732,-2.89317 6.20356,-0.43607 11.72421,-3.10822 16.60218,-8.035739 4.99234,-5.04332 8.26912,-11.371167 9.24664,-17.856506 0.45583,-3.022741 0.45693,-5.174621 0,-8.176512 l -0.35717,-2.369013 0.94611,-1.772028 c 2.00631,-3.75812 2.8204,-7.710628 2.63328,-12.783142 -0.1378,-3.737703 -0.56221,-5.474904 -2.06997,-8.476136 -1.16024,-2.30981 -4.14958,-5.282327 -6.57754,-6.540754 -2.2378,-1.15982 -2.32654,-1.633514 -0.46547,-2.485554 5.73009,-2.623349 13.27551,-2.248115 19.77009,0.983199 3.24895,1.616588 5.84089,3.721672 7.59641,6.169594 1.54827,2.159077 2.21988,3.89454 2.55914,6.61243 0.34586,2.772243 0.78295,3.30246 2.51091,3.045624 1.95587,-0.290664 3.0665,-0.157692 4.50123,0.538757 1.86714,0.90651 5.37927,4.507598 6.92148,7.096715 2.05674,3.452926 3.53336,8.139949 3.54549,11.253166 0,1.514896 -0.56497,4.061388 -1.23217,5.497695 -0.74796,1.6096 -3.17867,4.012813 -4.97498,4.918667 -2.7515,1.38765 -7.5173,2.48888 -10.78665,2.492508 -2.26591,0.0024 -2.83666,0.560607 -3.06292,2.995371 -0.27559,2.961545 -1.54799,5.023956 -3.63863,5.895912 -0.5126,0.213886 -1.71831,0.423801 -2.6793,0.4665 -1.97709,0.08783 -2.51147,0.254204 -2.85017,0.887105 -0.27008,0.503143 -0.30949,1.463533 -0.0854,2.046963 0.58839,1.532818 4.86226,1.423658 8.07896,-0.206336 2.18709,-1.108321 4.2769,-3.936984 4.78868,-6.481495 0.33897,-1.685716 0.27559,-1.632341 2.15126,-1.812168 2.03387,-0.19498 5.42474,-0.904669 6.96172,-1.457029 0.5837,-0.209753 1.14315,-0.330774 1.24319,-0.268949 0.40512,0.250375 0.86177,4.100772 0.85296,7.192008 0,3.764819 -0.35772,5.392577 -1.76627,8.282087 -0.64847,1.33057 -1.3887,2.32592 -2.72395,3.66358 -2.95434,2.95909 -6.21816,4.62018 -11.01842,5.60811 -2.04461,0.42074 -3.07008,0.49439 -5.55261,0.39873 -3.35147,-0.12914 -4.39816,-0.36403 -5.63116,-1.26388 -2.03414,-1.48426 -2.64733,-1.42146 -4.01426,0.41118 -1.63922,2.19734 -4.73218,3.29759 -7.10833,2.52851 z"
       id="path20541" />
    <path
       style="fill:#16771f;fill-opacity:1;stroke:#16771f;stroke-width:2.98609;stroke-linecap:round;stroke-linejoin:round;stroke-miterlimit:4;stroke-dasharray:none;stroke-opacity:1"
       d="m 50.765418,115.29503 c -0.602719,-0.19589 -1.644177,-0.7948 -2.314141,-1.33091 -1.884217,-1.508 -2.146581,-1.57165 -3.870955,-0.93895 -1.226659,0.45019 -1.979573,0.54471 -4.289306,0.53853 -9.889593,-0.0265 -20.272769,-7.77098 -22.994802,-17.151609 -0.721202,-2.484961 -0.909453,-5.010539 -0.603541,-8.10043 l 0.28358,-2.867403 -1.584642,-1.517232 c -1.7467,-1.672204 -2.819586,-3.523105 -3.502502,-6.043131 -0.517286,-1.907387 -0.589756,-6.725304 -0.135016,-8.871582 1.151413,-5.419805 3.734249,-9.934263 6.888665,-12.040756 2.462133,-1.644026 4.541467,-2.042721 7.285275,-1.396786 2.122038,0.499644 2.468457,0.277498 3.73507,-2.396337 3.91369,-8.261974 10.442165,-12.690022 19.761562,-13.40377 1.888631,-0.144658 7.589787,0.224277 7.888529,0.510482 0.05236,0.04941 -0.836145,0.997659 -1.972959,2.107186 -3.050796,2.977674 -4.686154,5.58758 -5.886079,9.394463 -0.921578,2.924273 -1.243746,6.084017 -0.891265,8.74413 0.608782,4.597384 2.27611,7.982555 5.553443,11.276578 l 2.053984,2.064422 -0.449765,1.833031 c -0.573231,2.336048 -0.577088,7.370358 0,9.899639 1.144529,5.085149 3.726545,9.605314 7.462186,13.063993 2.174417,2.013102 4.465132,3.374782 7.356912,4.373282 2.137764,0.73805 2.486387,0.78667 5.687655,0.79281 2.865048,0.005 3.733162,-0.0854 5.430806,-0.56891 1.111459,-0.31649 2.076579,-0.51949 2.144926,-0.45111 0.228741,0.22791 -1.343509,3.93561 -2.243589,5.29395 -4.241626,6.40012 -11.226216,8.13247 -19.527578,4.8433 -2.385246,-0.94506 -2.917135,-0.91077 -4.351864,0.28052 -2.429614,2.01745 -4.835803,2.73589 -6.907975,2.0626 z M 30.190868,84.216271 c 1.824963,-0.563682 4.063312,-1.985148 5.310094,-3.372374 l 0.934532,-1.039543 1.492327,0.669788 c 1.679453,0.753626 4.141311,0.922105 5.909781,0.404426 1.640044,-0.480142 3.26631,-1.729094 4.266705,-3.276925 1.155004,-1.787001 1.347917,-2.602365 0.845241,-3.574413 -0.769451,-1.488217 -2.622254,-1.278411 -3.423121,0.387676 -1.614138,3.357689 -5.087141,4.046484 -7.358565,1.459436 -0.890712,-1.014296 -1.172366,-2.141662 -0.942248,-3.771469 0.473467,-3.356123 0.473467,-3.355466 -0.118504,-3.907916 -0.3263,-0.303959 -0.880239,-0.522394 -1.324769,-0.522394 -1.195792,0 -1.788035,0.836245 -2.248542,3.173939 -0.364067,1.846977 -0.365178,2.172573 0,3.866954 0.359092,1.731016 0.35634,1.881542 -0.0386,2.337348 -0.231484,0.267957 -0.489426,0.674074 -0.569913,0.902496 -0.412829,1.172388 -4.382717,3.11675 -6.363679,3.11675 -1.341569,0 -2.893721,-0.691925 -4.090061,-1.823112 -1.372976,-1.298591 -2.146856,-1.55413 -3.004767,-0.99215 -1.589617,1.041611 -1.264973,2.565902 0.915802,4.299201 2.97225,2.362483 5.934313,2.863681 9.824006,1.662282 z"
       id="path20617" />
    <path
       style="fill:#8d4e00;fill-opacity:1;stroke:#8d4e00;stroke-width:4.11454;stroke-linecap:round;stroke-linejoin:round;stroke-miterlimit:4;stroke-dasharray:none;stroke-opacity:1"
       d="m 129.61484,135.81434 v -17.3057 l 2.43215,0.60359 c 2.32185,0.57621 5.47344,0.63244 9.54152,0.17024 l 1.87089,-0.21257 0.20114,17.02506 0.20114,17.02509 h -7.12342 -7.12342 z"
       id="path24438" />
    <path
       style="fill:#8d4e00;fill-opacity:1;stroke:#8d4e00;stroke-width:3.90287;stroke-linecap:round;stroke-linejoin:round;stroke-miterlimit:4;stroke-dasharray:none;stroke-opacity:1"
       d="m 87.706977,129.83381 v -23.28624 l 2.057976,0.57086 c 1.131886,0.31397 4.110958,0.6058 6.62016,0.6485 l 4.562187,0.0776 0.45423,22.01743 c 0.24982,12.10961 0.28171,22.29657 0.0709,22.63775 -0.21085,0.34116 -3.394322,0.62029 -7.074386,0.62029 h -6.691027 z"
       id="path24399" />
    <path
       style="fill:#f8f800;fill-opacity:0;stroke:#000000;stroke-width:3.85;stroke-linecap:round;stroke-linejoin:round;stroke-miterlimit:4;stroke-dasharray:none;stroke-opacity:1"
       d="M 78.344401,56.078329 C 76.215455,61.979807 75.6064,67.55168 85.901943,70.759036"
       id="path3236"
       sodipodi:nodetypes="cc" />
    <path
       style="fill:#f8f800;fill-opacity:0;stroke:#000000;stroke-width:3.85;stroke-linecap:round;stroke-linejoin:round;stroke-miterlimit:4;stroke-dasharray:none;stroke-opacity:1"
       d="m 64.400579,61.154227 c 0.862875,9.824019 11.941374,9.125887 12.932952,3.766011"
       id="path3328"
       sodipodi:nodetypes="cc" />
    <path
       style="fill:#f8f800;fill-opacity:0;stroke:#000000;stroke-width:3.85;stroke-linecap:round;stroke-linejoin:round;stroke-miterlimit:4;stroke-dasharray:none;stroke-opacity:1"
       d="m 35.815965,69.543093 c -3.484036,10.411846 9.050972,13.023951 11.522749,5.390298"
       id="path3236-3"
       sodipodi:nodetypes="cc" />
    <path
       style="fill:#f8f800;fill-opacity:0;stroke:#000000;stroke-width:3.85;stroke-linecap:round;stroke-linejoin:round;stroke-miterlimit:4;stroke-dasharray:none;stroke-opacity:1"
       d="m 21.201188,79.234466 c 5.686002,6.916605 13.063382,2.431195 14.780977,-1.736125"
       id="path3328-6"
       sodipodi:nodetypes="cc" />
    <path
       style="fill:#8d4e00;fill-opacity:1;stroke:#8d4e00;stroke-width:2.05079;stroke-linecap:round;stroke-linejoin:round;stroke-miterlimit:4;stroke-dasharray:none;stroke-opacity:1"
       d="m 47.295825,135.86202 v -17.258 l 3.235632,0.48521 c 2.218166,0.33264 4.1295,0.11173 6.078228,-0.7025 1.563431,-0.65324 3.138232,-1.18771 3.499562,-1.18771 0.361329,0 0.656962,8.08223 0.656962,17.96051 v 17.96052 h -6.735193 -6.735191 z"
       id="path24360" />
    <path
       style="fill:none;fill-opacity:1;stroke:#000000;stroke-width:3.85;stroke-linecap:round;stroke-linejoin:round;stroke-miterlimit:4;stroke-dasharray:none;stroke-opacity:1"
       d="m 45.12489,115.85772 -0.02756,39.05136 17.945131,-0.0682 -0.501851,-39.34919"
       id="path7656"
       sodipodi:nodetypes="cccc" />
    <path
       style="fill:none;fill-opacity:1;stroke:#000000;stroke-width:3.85;stroke-linecap:round;stroke-linejoin:round;stroke-miterlimit:4;stroke-dasharray:none;stroke-opacity:1"
       d="m 85.40987,104.90345 0.26967,49.89689 17.94513,-0.0682 -0.237,-50.99911"
       id="path7656-7"
       sodipodi:nodetypes="cccc" />
    <path
       style="fill:none;fill-opacity:1;stroke:#000000;stroke-width:3.85;stroke-linecap:round;stroke-linejoin:round;stroke-miterlimit:4;stroke-dasharray:none;stroke-opacity:1"
       d="m 127.80231,115.85772 -0.0276,39.05136 17.94513,-0.0682 -0.28165,-37.61084"
       id="path7656-5"
       sodipodi:nodetypes="cccc" />
    <path
       id="path5081"
       style="fill:none;fill-opacity:0.987617;stroke:#000000;stroke-width:3.85;stroke-linecap:round;stroke-linejoin:round;stroke-miterlimit:4;stroke-dasharray:none;stroke-opacity:1"
       d="M 63.054591,39.613485 C 34.081671,31.381441 27.240658,53.957061 27.240658,53.957061 11.773645,48.764745 3.0294043,77.893296 15.078265,86.151126 10.837179,107.11787 35.42435,119.56143 46.035168,114.48372 c 4.992338,4.71644 9.437626,3.38114 13.65941,-0.4288 13.177404,6.09959 24.647517,0.82762 26.966619,-14.992074 M 173.43693,86.989784 c 8.62105,30.583196 -25.90504,32.328816 -29.44005,26.796196 -1.76929,3.93733 -10.09463,7.41294 -14.86567,-0.40153 -18.6564,7.71591 -23.07534,-6.20146 -25.74354,-9.6514 m 6.16415,-20.163815 c 7.08545,3.061303 9.88436,-3.756147 8.06022,-9.791179 10.9768,3.569745 12.8285,0.07204 16.2067,-3.838157 4.98683,-5.77248 8.57696,-26.901086 -10.28452,-29.424963 C 122.83174,32.092881 111.91667,26.79614 103.07211,24.585044 85.774896,22.623153 73.505016,27.787333 69.975242,38.844524 51.743217,37.894942 42.517244,62.922258 58.600481,73.007584 52.111406,87.99781 67.38909,110.23559 86.661197,99.062846 c -0.564375,5.134544 10.547541,11.187574 16.726473,4.670204 17.12062,6.31425 35.97363,-15.439783 30.43107,-33.793151 M 123.53422,40.514936 c 13.78701,-13.126381 39.24339,-2.647426 38.97992,12.802714 11.53653,-5.02267 33.74782,34.844474 -2.59193,35.631281 -0.15709,10.702565 -9.57818,9.296466 -9.57818,9.296466"
       sodipodi:nodetypes="cccccccccccccccccccccccc" />
  </g>
</svg>
